# xmcd CD database file
#
# Track frame offsets:
#	150
#	12873
#	24793
#	42028
#	76567
#	98381
#	130393
#	166190
#	202098
#	216834
#	232048
#	270558
#
# Disc length: 4389 seconds
#
# Revision: 1
# Processed by: cddbd v1.5.2PL0 Copyright (c) Steve Scherf et al.
# Submitted via: CDex 1.70beta2
#
DISCID=8a11230c
DTITLE=Groundhogs - High On The Hog[CD02]
DYEAR=2004
DGENRE=Blues
TTITLE0=201 - Me And The Devil
TTITLE1=202 - Can't Be Satisfied
TTITLE2=203 - Diving Duck
TTITLE3=204 - No More Doggin'
TTITLE4=205 - Eccentric Man
TTITLE5=206 - 3744 James Road
TTITLE6=207 - Split (Part 1)
TTITLE7=208 - Split (Part 2)
TTITLE8=209 - Thank Christ For The Bomb
TTITLE9=211 - Superceded
TTITLE10=212 - Groundhog Blues
TTITLE11=213 - Cherry Red
EXTD=YEAR: 2004
EXTT0=
EXTT1=
EXTT2=
EXTT3=
EXTT4=
EXTT5=
EXTT6=
EXTT7=
EXTT8=
EXTT9=
EXTT10=
EXTT11=
PLAYORDER=
